<svg data-v-423bf9ae="" xmlns="http://www.w3.org/2000/svg" viewBox="0 0 72.77129055339385 60" class="icon"><!----><!----><!----><!----><g data-v-423bf9ae="" id="044d01c2-0615-4c58-9437-3e00dda97ff8" transform="matrix(0.30223900644583773,0,0,0.30223900644583773,-6.1816925879808196,-12.929784326808836)" stroke="none" fill="black"><path d="M249.762 54.242h-34.395V42.78h-57.33v11.462H31.92L20.453 65.709V237.688h45.865v-22.929H43.385V77.172h114.652V88.64h11.465v11.464l11.256 11.679h11.888l11.254-11.679V88.64h11.467V77.172h22.928v137.587h-22.928v22.929h45.86V65.709z"></path><path d="M184.938 206.167c-1.367.056-1.82-.27-2.084-1.625-1.432-7.259-3.438-14.339-7.037-20.88-5.605-10.18-13.949-15.67-25.836-15.078-4.799.24-9.436 1.32-13.888 3.021-2.22.851-4.332 1.006-6.614.533-4.728-.982-8.576-3.1-10.67-7.723-1.777-3.93-1.719-3.918 2.185-5.648l7.256-2.842c.736-.332 1.267-.569 1.798-.815 3.637-1.654 7.209-3.399 10.303-5.995 4.626-3.892 9.608-7.211 6.704-12.459-2.904-5.246-11.684-2.677-16.251-.5-7.13 3.394-7.716 5.645-13.564 10.804-1.631 1.439-3.265 2.877-4.898 4.317-.138-.106-.27-.215-.408-.323.334-1.126.68-2.252 1.009-3.379.657-2.223 1.308-4.44 1.173-6.815-.182-3.218-3.083-5.242-6.139-4.248-2.575.84-4.168 2.654-5.098 5.122-.842 2.237-1.323 4.569-1.578 6.938-.176 1.596-.859 2.435-2.467 2.978-4.693 1.575-8.335 4.467-9.611 9.477-1.17 7.13-4.846 8.934-5.92 13.63-1.17 5.12 3.031 8.977 7.073 10.81 3.08 1.396 2.977 1.388 2.593 4.796-.689 6.15.272 11.904 4.73 16.586 2.746 2.892 6.204 4.777 9.788 6.432 2.587 1.196 5.229 2.288 7.822 3.481.666.305 1.789.405 1.771 1.226-.012.76-1.106.951-1.76 1.317-1.449.812-2.965 1.511-4.426 2.32-2.021 1.129-4.118 2.167-5.761 3.859-1.408 1.443-1.287 2.877.476 3.783 1.278.66 1.452 1.317 1.053 2.637-.979 3.18.226 5.209 3.452 6.027 1.918.49 3.868.572 5.842.35 2.725-.306 5.42-.754 8.077-1.414.616-.155 1.147-.185 1.657.27 1.995 1.763 4.473 2.446 6.983 2.975 6.458 1.354 12.985 1.495 19.516.697 4.555-.554 9.066-1.357 13.207-3.499 1.877-.971 3.635-2.138 4.555-4.111.504-1.088 1.262-1.604 2.35-1.938 4.518-1.394 8.816-3.268 12.668-6.054 3.551-2.572 6.463-5.641 7.41-10.119 1.058-4.997-2.337-9.123-7.441-8.921"></path></g><!----></svg>